<svg xmlns="http://www.w3.org/2000/svg" viewBox="0 0 24 24" width="24" height="24" fill="currentColor">
  <path d="M12 2.16c3.2 0 3.584.012 4.85.07 1.17.054 1.97.24 2.43.4a4.9 4.9 0 0 1 1.77 1.15 4.9 4.9 0 0 1 1.15 1.77c.16.46.346 1.26.4 2.43.058 1.266.07 1.65.07 4.85s-.012 3.584-.07 4.85c-.054 1.17-.24 1.97-.4 2.43a4.9 4.9 0 0 1-1.15 1.77 4.9 4.9 0 0 1-1.77 1.15c-.46.16-1.26.346-2.43.4-1.266.058-1.65.07-4.85.07s-3.584-.012-4.85-.07c-1.17-.054-1.97-.24-2.43-.4a4.9 4.9 0 0 1-1.77-1.15 4.9 4.9 0 0 1-1.15-1.77c-.16-.46-.346-1.26-.4-2.43C2.172 15.584 2.16 15.2 2.16 12s.012-3.584.07-4.85c.054-1.17.24-1.97.4-2.43A4.9 4.9 0 0 1 3.78 2.95 4.9 4.9 0 0 1 5.55 1.8c.46-.16 1.26-.346 2.43-.4C9.246 1.342 9.63 1.33 12 1.33zm0 1.68c-3.16 0-3.532.012-4.776.07-.99.046-1.53.21-1.89.35-.476.185-.816.406-1.174.764-.358.358-.579.698-.764 1.174-.14.36-.304.9-.35 1.89-.058 1.244-.07 1.616-.07 4.776s.012 3.532.07 4.776c.046.99.21 1.53.35 1.89.185.476.406.816.764 1.174.358.358.698.579 1.174.764.36.14.9.304 1.89.35 1.244.058 1.616.07 4.776.07s3.532-.012 4.776-.07c.99-.046 1.53-.21 1.89-.35.476-.185.816-.406 1.174-.764.358-.358.579-.698.764-1.174.14-.36.304-.9.35-1.89.058-1.244.07-1.616.07-4.776s-.012-3.532-.07-4.776c-.046-.99-.21-1.53-.35-1.89a3.21 3.21 0 0 0-.764-1.174 3.21 3.21 0 0 0-1.174-.764c-.36-.14-.9-.304-1.89-.35-1.244-.058-1.616-.07-4.776-.07zm0 3.3a5.54 5.54 0 1 1 0 11.08 5.54 5.54 0 0 1 0-11.08zm0 1.68a3.86 3.86 0 1 0 0 7.72 3.86 3.86 0 0 0 0-7.72zM17.34 5.7a1.26 1.26 0 1 1 0 2.52 1.26 1.26 0 0 1 0-2.52z"/>
</svg>

